# xmcd
#
# Track frame offsets:
#	150
#	12524
#	26863
#	46579
#	61884
#	89330
#	106320
#	131327
#	146315
#	161201
#	178845
#	199422
#	214873
#
# Disc length: 3082 seconds
#
# Revision: 0
# Processed by: cddbd v1.5.2PL0 Copyright (c) Steve Scherf et al.
# Submitted via: SynApp - FreeCDDB Version: 2.4
#
DISCID=b70c080d
DTITLE=Various Artist - varios
DYEAR=2007
DGENRE=Brasilianische Musik
TTITLE0=Charlie Brown Jr - Proibida pra Mim[Malhacao]
TTITLE1=CPM 22 - Um Minuto para o fim do Mundo
TTITLE2=Detonautas - Olhos certos
TTITLE3=Detonautas - Voce me faz tao bem
TTITLE4=Legião Urbana - Vento No Litoral
TTITLE5=Papas da Lingua - Eu Sei [Novela Páginas da Vida]
TTITLE6=Victor e Leo - 60 dias apaixonados
TTITLE7=Vitor e Léo-Amigo - Apaixonado
TTITLE8=Zé Ramalho - Misterios da Meia Noite
TTITLE9=Zezé di Carmargo - 02 Sem Você
TTITLE10=Zezé di Carmargo - 07 A Saudade É Uma Pedra
TTITLE11=Zezé di Carmargo - 08 Do Jeito Que a Moçada Gosta
TTITLE12=Zezé di Carmargo - 15 Ainda Sou O Mesmo Homem
EXTD=
EXTT0=
EXTT1=
EXTT2=
EXTT3=
EXTT4=
EXTT5=
EXTT6=
EXTT7=
EXTT8=
EXTT9=
EXTT10=
EXTT11=
EXTT12=
PLAYORDER=
